<?xml version="1.0" encoding="utf-8"?>
<!-- Generator: Adobe Illustrator 28.3.0, SVG Export Plug-In . SVG Version: 6.00 Build 0)  -->
<svg version="1.1" id="Слой_1" xmlns="http://www.w3.org/2000/svg" xmlns:xlink="http://www.w3.org/1999/xlink" x="0px" y="0px"
	 viewBox="0 0 1700 400" style="enable-background:new 0 0 1700 400;" xml:space="preserve">
<style type="text/css">
	.st0{fill:#342800;stroke:#000000;stroke-miterlimit:10;}
	.st1{fill:#342800;stroke:#000000;stroke-width:1.000000e-04;stroke-miterlimit:10;}
	.st2{fill:#342800;stroke:#000000;stroke-width:1.000000e-06;stroke-miterlimit:10;}
	.st3{fill:#342800;}
	.st4{fill:#E0C84D;}
</style>
<rect x="-639" y="-417" class="st0" width="3079.5" height="1240.9"/>
<g transform="translate(0.000000,400.000000) scale(0.100000,-0.100000)">
	<polygon class="st1" points="0,4000 17000,4000 17000,4000 	"/>
	<polygon class="st2" points="0,4000 17000,4000 17000,4000 	"/>
	<polygon class="st3" points="0,4000 17000,4000 17000,4000 	"/>
	<path class="st4" d="M6917.5,3148.1c-186.4-17.4-473.7-82.8-531.8-120.3l-18.7-12.7l26.1-2c14.7-1.3,55.5,0.7,90.2,5.3
		c124.9,14.7,267.9,21.4,527.8,26.1c266.6,4,305.3,8.7,223.2,25.4c-95.5,20-136.3,30.1-136.3,34.7c0,2.7,9.4,13.4,20,24.1
		c11.4,10.7,20,21.4,20,24.7C7138,3161.5,7029.7,3158.8,6917.5,3148.1z"/>
	<path class="st4" d="M6934.2,2947.7c-336.1-16-588-38.1-731.6-63.5c-117.6-20-343.4-74.2-429.6-102.9
		c-124.3-40.8-182.4-68.1-169.7-80.8c2-2.7,28.7,4.7,59.5,16c105.6,38.1,342.1,82.2,509.8,94.9c105.6,8,479.7,4,660.1-6
		c125.6-7.3,428.3-36.7,495.8-48.1c86.2-14,217.8-41.4,297.3-60.8c72.2-17.4,110.9-22,170.4-18.7c22.7,0.7-0.7,10.7-83.5,32.7
		c-125.6,34.7-226.5,77.5-306.7,130.3l-48.8,32.7l30.7,18.7c16.7,10.7,30.7,22.7,30.7,26.1c0,4,4.7,6.7,10,6.7s10,2.7,10,6
		C7438.6,2941,7057.1,2953.7,6934.2,2947.7z"/>
	<path class="st4" d="M11253.7,2947c-23.4-8.7-74.8-52.1-81.5-68.1c-9.4-23.4-132.3-501.1-132.3-513.1c0-10.7,34.7-59.5,52.8-73.5
		c7.3-6.7,72.2-8.7,271.9-8.7h261.9l48.8,38.1c27.4,20.7,50.1,38.1,50.8,38.8c3.3,2,129,481.1,129,491.1
		c-0.7,5.3-15.4,30.1-34.1,55.5l-32.7,44.8l-262.6-0.7C11382,2951,11259,2949,11253.7,2947z M11541,2727.2
		c0-3.3-39.4-163-54.1-217.8l-6.7-25.4h-56.1c-31.4,0-56.8,2.7-56.8,5.3c0,3.3,12,58.1,26.7,121.6s26.7,116.9,26.7,118.3
		c0,0.7,27.4,2,60.1,2C11514.3,2731.2,11541,2729.9,11541,2727.2z"/>
	<path class="st4" d="M8748.2,2933.6c0-10,17.4-30.1,135.6-153.7l46.1-48.8h199.8c110.2,0,199.8-1.3,199.8-3.3s-4.7-23.4-10.7-46.8
		l-10.7-43.4h-59.5h-58.8l4,23.4l4,23.4h-141h-141l-7.3-24.7c-3.3-14-26.7-100.2-51.4-191.1c-37.4-139.6-43.4-167-34.7-172.4
		c15.4-9.4,270.6-8,277.9,2.7c4,4,13.4,35.4,21.4,68.1c8,33.4,17.4,71.5,21.4,85.5l6.7,24.7h56.1c35.4,0,56.8-2.7,56.8-7.3
		c0-3.3-9.4-42.8-20-86.9c-11.4-44.1-18.7-82.8-16.7-86.9c4-6,277.3-8.7,277.3-2.7c0,2,34.7,131.6,76.8,288.6
		c63.5,233.2,75.5,286,68.8,295.3c-4,6-20,23.4-34.7,39.4l-26.7,28.1h-419.6C8780.2,2945,8748.2,2944.3,8748.2,2933.6z"/>
	<path class="st4" d="M9723.7,2930.3c-4-8.7-40.1-144.3-80.2-302.7L9570,2341l30.1-30.7l30.1-30.1l265.9-2l265.2-2l46.8,34.1
		c25.4,18,48.1,36.7,50.8,41.4c11.4,22,147.7,573.3,144.3,582.6c-4,9.4-21.4,10.7-138.3,10.7c-132.3,0-134.3,0-140.3-14.7
		c-3.3-8.7-27.4-99.6-53.5-202.4c-26.1-102.9-50.8-198.4-54.1-211.8l-6.7-25.4h-52.8c-29.4,0-53.5,2-53.5,4
		c0,2.7,22.7,92.9,50.8,201.1c30.1,118.9,49.4,206.5,48.1,221.2l-2,24.7l-135.6,2C9730.3,2945,9730.3,2945,9723.7,2930.3z"/>
	<path class="st4" d="M10469.3,2923.6c-18-43.4-55.5-169-52.1-177.7c2-6,28.1-8,99.6-8c89.5,0,96.9-0.7,92.2-11.4
		c-10.7-26.1-103.6-400.9-103.6-418.3v-18l138.3,1.3l138.3,2l60.8,220.5l60.8,220.5l92.9,3.3c72.2,2.7,93.5,5.3,97.5,13.4
		c3.3,5.3,16,47.4,28.7,93.5c16.7,60.1,21.4,85.5,16,91.5c-5.3,6.7-76.2,8.7-334.1,8.7H10478L10469.3,2923.6z"/>
	<path class="st4" d="M6169.2,2663.7c-128.9-6.7-221.2-17.4-263.9-29.4c-52.8-15.4-175.1-82.2-407.6-222.5l-100.2-60.8l-32.1,33.4
		c-21.4,21.4-31.4,36.7-28.7,43.4c18,46.8,7.3,63.5-44.8,68.1c-43.4,3.3-94.2-16.7-100.2-39.4c-4.7-16.7,21.4-46.1,40.1-46.1
		c11.4,0,108.9-82.8,108.9-92.9c0-2-60.8-4.7-135-4.7c-74.8-0.7-174.4-2.7-221.2-5.3l-86.2-5.3l-22-34.7
		c-21.4-33.4-78.8-93.5-110.9-116.3l-15.4-10.7l15.4,22.7c8.7,12.7,19.4,26.7,24.1,30.1c13.4,12,63.5,82.8,63.5,90.2
		c0,16.7-122.3-19.4-194.4-57.5c-87.5-46.1-207.1-157-274.6-255.2c-51.4-74.8-76.2-185.7-68.8-309.3l4.7-77.5l-26.7-22.7
		c-37.4-32.1-46.8-54.1-32.1-75.5c16.7-26.1,73.5-65.5,147.7-103.6c58.1-29.4,82.8-37.4,187.1-60.8
		c483.1-104.9,797.1-140.3,1065.7-120.3c60.8,4.7,185.7,9.4,277.3,10.7c92.2,0.7,194.4,3.3,227.2,6c33.4,2,122.3,6.7,197.8,10
		c135,5.3,138.3,6,177.7,26.1c94.9,47.4,153.7,124.9,200.4,265.2c28.7,86.9,31.4,98.2,34.1,177.7c2.7,77.5,1.3,90.9-14.7,147
		c-22,75.5-48.8,126.9-89.5,171.7c-26.7,28.7-37.4,35.4-71.5,44.1c-46.8,12-62.8,12.7-99.6,2.7c-14.7-4-37.4-9.4-49.4-12.7
		l-21.4-5.3l14,20c18,24.7,49.4,38.8,88.2,38.8c87.5,0,196.4-82.8,221.8-169c48.1-161,48.1-237.2,0-447c-12-52.1-10-85.5,6-85.5
		c4.7,0,50.8,12,102.2,26.1c51.4,14.7,122.3,32.7,158.3,40.1c62.1,13.4,269.9,62.8,571.9,137.6c190.4,46.8,237.9,54.1,270.6,40.8
		c28.7-12,75.5-14,110.9-4c34.7,10,93.5,75.5,114.9,129c25.4,64.1,38.1,112.9,38.1,149.7c0,23.4,3.3,36.7,10.7,42.8
		c10,8,10.7,20.7,7.3,97.5c-4,80.2-12.7,131-33.4,185.7c-21.4,58.8-59.5,88.9-191.8,151.7c-46.1,21.4-90.9,46.8-100.2,55.5
		c-9.4,8.7-27.4,20-40.8,25.4c-32.7,13.4-159,38.8-259.9,51.4c-30.7,4.7-66.8,12-80.2,18c-49.4,21.4-86.2,28.1-126.9,22
		c-22-3.3-42.8-7.3-46.8-10s-25.4,2-48.8,9.4c-63.5,21.4-207.8,54.1-282,64.8c-36.7,5.3-135.6,12.7-220.5,16
		c-84.2,4-201.8,9.4-260.6,13.4C6334.2,2671.1,6308.1,2671.1,6169.2,2663.7z M6414.4,2623.6c103.6-8,192.4-25.4,241.2-46.1
		c34.7-14.7,34.7-15.4,30.7-39.4c-2.7-13.4-8.7-35.4-14-48.8c-11.4-28.7,0-28.7-118.9,1.3c-178.4,45.4-518.5,81.5-671.5,70.2
		l-56.8-4l44.8,27.4c24.7,14.7,60.8,30.1,80.2,34.1C6036.9,2636.3,6224.6,2638.3,6414.4,2623.6z M7107.9,2554.1
		c85.5-13.4,159-34.1,168.4-47.4c4.7-6.7,7.3-12.7,6.7-14c-1.3-0.7-20,4-42.1,10.7c-95.5,30.7-135,36.1-231.2,31.4
		c-109.6-5.3-199.8-19.4-235.9-38.1c-42.1-21.4-80.2-63.5-102.9-112.2c-20-43.4-47.4-137-47.4-162.4c0-10.7-3.3-11.4-28.1-8
		c-16,2.7-29.4,4.7-30.1,5.3c-0.7,0.7,7.3,16,16.7,35.4c61.5,118.3,114.3,223.8,126.3,254.6c16.7,39.4,26.1,44.8,94.9,54.8
		C6860,2572.2,7030.4,2566.2,7107.9,2554.1z M6239.3,2526.8c31.4-6,55.5-13.4,52.8-15.4c-2-2-55.5-4-118.3-4
		c-84.2,0-131.6-3.3-178.4-12c-34.7-7.3-64.8-14-66.1-15.4c-7.3-7.3,6.7-8,46.1-2c78.2,10.7,183.1,14.7,269.3,9.4
		c46.8-2.7,84.9-6.7,84.9-9.4s-29.4-2-64.8,1.3c-88.9,7.3-252.6-4.7-392.9-28.7c-62.1-10.7-125.6-20.7-139.6-21.4
		c-14.7-1.3-27.4-5.3-28.7-10c-6-17.4,36.1-16,151.7,4c194.4,33.4,345.4,43.4,417.6,26.7l40.1-9.4l-50.1-1.3
		c-268.6-8-478.4-36.1-509.8-68.8c-9.4-8.7,28.7-4.7,98.9,10c74.8,16,253.2,30.7,388.9,30.7c110.2,0.7,155-9.4,168.4-38.1
		c11.4-24.7,10-27.4-26.1-66.1c-38.8-40.1-72.8-57.5-158.3-77.5c-52.1-12.7-71.5-14-169-10.7c-60.8,2.7-147,8.7-191.8,14
		s-120.3,12-167,14c-47.4,2.7-110.9,8.7-142.3,13.4c-31.4,5.3-82.8,12.7-114.9,17.4c-32.7,4-58.8,9.4-58.8,12
		c0,7.3,95.5,74.8,140.3,99.6c51.4,28.7,282.6,104.2,371.5,121.6c40.1,8,90.9,18,112.9,23.4
		C6054.9,2546.1,6159.2,2542.8,6239.3,2526.8z M7373.2,2536.8c30.7-8,42.1-27.4,48.8-84.2c4-35.4,2.7-46.1-10-72.2
		c-20.7-42.8-108.2-117.6-244.5-209.8c-131.6-88.9-199.8-138.3-247.9-180.4l-35.4-30.1v-46.8c0-51.4,25.4-185.7,42.1-225.8
		c18.7-44.1,32.7-45.4,133.6-12.7c118.9,38.8,425.6,166.4,403.6,167.7c-2.7,0-66.8-20.7-143.6-46.1
		c-112.2-37.4-317.4-94.2-340.7-94.2c-2.7,0-6,20-6.7,45.4c-2,41.4-20.7,134.3-34.7,171c-4.7,14-0.7,20,38.8,55.5
		c55.5,48.8,256.6,202.4,316.7,241.2c24.7,16,47.4,27.4,50.8,25.4s29.4-36.7,58.1-78.2l52.1-74.2l-16-12.7
		c-8.7-6.7-62.1-36.1-117.6-64.1c-56.1-28.7-102.2-54.8-102.2-57.5c0-12.7,48.8,5.3,144.3,52.1c55.5,27.4,102.2,50.1,104.2,50.1
		c4,0,46.1-92.9,62.1-135l11.4-32.1h72.8c62.8,0,72.8,1.3,72.8,10.7c0,16-102.9,195.1-137,237.9c-28.7,36.7-109.6,105.6-150.3,127.6
		l-22,12l18.7,19.4c43.4,44.8,175.7,120.3,266.6,151c47.4,16,68.1,19.4,86.9,12c16.7-6.7,12.7-16-6.7-16
		c-26.7,0-122.9-31.4-153-50.1c-34.7-21.4-27.4-20.7,48.1,3.3c42.8,14,75.5,20,104.2,19.4h41.4l-46.8-12.7
		c-25.4-6.7-69.5-20.7-96.9-32.1c-27.4-10.7-69.5-26.1-93.5-34.1c-24.1-8-49.4-19.4-56.8-24.7l-13.4-10l13.4-10
		c7.3-6,40.1-26.7,72.2-46.8l58.8-36.7l56.1,34.1c56.8,34.1,166.4,87.5,225.8,110.2c28.7,10.7,33.4,11.4,42.8,2
		c8.7-9.4,6.7-11.4-25.4-22c-74.8-24.1-231.2-113.6-219.8-125.6c2-2,20,6.7,40.1,20c58.8,37.4,127.6,68.1,163.7,72.8l33.4,4
		L7902,2274c-30.7-27.4-36.7-37.4-54.8-92.9c-12-34.7-24.1-86.9-27.4-116.9c-3.3-30.7-8-66.1-10-80.2c-2-13.4-5.3-34.1-7.3-46.1
		c-2.7-18-10-24.7-45.4-44.8c-42.1-23.4-44.8-24.1-116.9-24.1s-74.8-0.7-117.6-24.1c-24.1-13.4-44.8-26.7-47.4-30.1
		c-2-3.3,16-6,41.4-6c41.4,0,50.1-2.7,116.3-37.4c117.6-62.1,116.3-56.1,12-84.9c-120.3-32.7-610-154.3-678.2-168.4
		c-30.1-6-74.2-16.7-98.2-23.4l-44.1-12.7v51.4c0.7,28.1,3.3,99.6,6,158.3c6,116.9,0.7,183.1-19.4,229.2c-12,27.4-12,28.1,0,28.1
		c16.7,0,18.7,4.7,21.4,48.8l2,37.4l20-20c16-14.7,22.7-17.4,28.7-11.4c4.7,4.7,8,6,8,2.7c0-6.7,30.7,15.4,123.6,89.5
		c44.1,35.4,104.9,82.8,135,105.6c30.1,22.7,56.1,44.1,58.8,47.4c2,4,28.1,21.4,57.5,38.8c73.5,43.4,89.5,62.8,99.6,120.9
		c8,50.1,2.7,88.2-18,119.6C7335.7,2546.1,7338.4,2546.8,7373.2,2536.8z M7321,2522.7c12-16.7,14.7-65.5,4-65.5
		c-3.3,0-6.7,4-6.7,8.7s-6,20-13.4,34.7s-13.4,28.7-13.4,31.4C7291.6,2543.5,7311.7,2536.8,7321,2522.7z M7107.2,2504
		c80.8-9.4,151-42.1,171-80.2c6-11.4,4-15.4-14.7-26.7l-22-13.4l-23.4,22.7c-41.4,40.1-88.2,64.8-159,83.5
		c-15.4,4.7-26.7,10.7-24.7,14C7039.1,2512.1,7034.4,2512.1,7107.2,2504z M7166.7,2371.1c27.4-26.1,31.4-40.8,11.4-40.8
		c-7.3,0-13.4,4-13.4,9.4c0,9.4-26.1,34.7-62.8,61.5c-12,8.7-17.4,17.4-14.7,22C7093.2,2431.9,7123.3,2412.5,7166.7,2371.1z
		 M7103.9,2369.7c39.4-31.4,52.1-49.4,38.1-54.8c-4.7-2-26.7,14.7-51.4,39.4C7042.4,2403.1,7050.4,2412.5,7103.9,2369.7z
		 M6905.5,2377.8c23.4-8.7,29.4-32.7,15.4-60.1c-13.4-26.7-38.1-36.1-76.2-30.7l-29.4,4.7l21.4,12.7c11.4,6.7,20.7,18,20.7,25.4
		c0,12-4,10.7-44.1-9.4c-50.8-24.7-79.5-60.1-86.2-106.2c-4-26.1-6-28.1-20.7-25.4c-20.7,4-20,11.4,5.3,60.8l20.7,40.8l-14.7,16
		c-21.4,22.7-13.4,39.4,26.7,56.8C6801.2,2387.8,6864,2393.8,6905.5,2377.8z M6534.6,2325c-4.7-43.4-10.7-54.8-33.4-54.8
		c-10.7,0-10.7,1.3-2,15.4c5.3,8,11.4,26.7,14,41.4c6.7,42.1,10.7,50.8,18,46.1C6536,2370.4,6536.6,2353,6534.6,2325z
		 M5212.4,2270.2c26.7-60.1,149.7-86.2,628-135c78.2-8,137.6-16.7,133-19.4c-4.7-3.3-32.7-12-62.1-20
		c-48.1-12.7-58.1-13.4-112.9-6.7c-32.7,4-91.5,10.7-130.3,14c-173.7,16-226.5,24.7-410.2,68.1c-66.1,15.4-90.2,24.7-106.2,38.1
		c-24.7,22.7-21.4,44.1,10,65.5C5191.7,2294.9,5202.4,2293.6,5212.4,2270.2z M5047.4,2274.2c-12-14.7,2-59.5,26.1-83.5
		c21.4-21.4,82.8-47.4,111.6-47.4c16,0,271.3-49.4,402.9-77.5c27.4-6,97.5-12.7,155-14c98.9-3.3,106.2-2.7,129.6,10.7
		c13.4,8,44.8,18.7,69.5,24.1c40.1,8.7,121.6,40.8,186.4,74.2c49.4,25.4,114.9,37.4,221.2,40.8c56.8,2,101.6,2,99.6-0.7
		c-2-2-33.4-12-70.2-21.4c-36.1-9.4-92.2-25.4-124.3-36.1c-31.4-11.4-60.8-20-64.8-20c-10.7,0-126.9-45.4-154.3-60.1
		c-40.1-21.4-30.1-28.7,40.1-28.1c34.7,0.7,84.2-1.3,108.9-4c31.4-4,48.8-3.3,56.8,2c6,4.7,49.4,28.1,96.2,52.1
		c181.7,93.5,247.2,99.6,372.8,34.1c74.8-39.4,76.2-41.4,70.2-86.9c-4.7-38.8-4.7-39.4-15.4-22.7c-24.1,38.1-91.5,96.9-124.9,108.9
		c-82.2,28.7-167,22.7-235.9-16c-20-11.4-104.2-66.1-187.7-122.3c-82.8-55.5-175.1-116.3-204.4-134.3
		c-29.4-17.4-80.2-49.4-113.6-70.2c-32.7-20.7-80.8-49.4-106.9-63.5c-25.4-14-81.5-45.4-123.6-70.2
		c-42.1-24.7-101.6-55.5-131.6-67.5c-30.7-12-55.5-26.1-55.5-30.1c0-4.7,18.7-18.7,41.4-30.7c22.7-12,58.8-38.1,80.8-58.1l38.8-36.1
		l38.1,8.7c20.7,4.7,63.5,18,94.2,30.7c31.4,12.7,57.5,21.4,58.8,20.7c3.3-4-141.6-71.5-153-71.5c-10.7,0-14.7-8.7-14-31.4
		c0.7-10.7-33.4-20-106.9-27.4c-62.8-6.7-78.2-14.7-78.2-38.1c0-30.1,14-33.4,127.6-31.4l106.2,2v-18v-18l-84.9,4.7
		c-47.4,2.7-108.2,8-135.6,12l-50.1,7.3l-58.1,56.1c-51.4,48.1-72.2,63.5-72.2,52.8c0-1.3,24.1-30.7,54.1-65.5
		c68.8-79.5,72.2-80.8,227.8-81.5c64.8-0.7,116.9-2,114.9-3.3c-6-6-197.1-14-245.2-10c-51.4,4-52.1,4.7-68.1,29.4
		c-26.7,42.1-137.6,149.7-175.1,169c-24.1,13.4-75.5,26.7-180.4,47.4c-227.8,45.4-236.5,46.8-289.3,44.8
		c-154.3-6.7-169-4.7-177.7,27.4c-8,28.1-40.1,49.4-80.8,54.8c-42.8,6-92.9,22.7-101.6,33.4c-4,5.3-6,14-3.3,19.4
		c3.3,9.4,14,10.7,78.2,7.3c45.4-2.7,80.8-8,89.5-13.4c18.7-11.4,37.4-12,34.1-0.7c-4.7,15.4-88.2,52.1-127.6,56.1
		c-20.7,2-38.1,5.3-38.1,6.7s18,24.1,39.4,50.8c22,26.7,60.1,74.2,85.5,105.6c64.8,80.8,146.3,169.7,187.1,201.8
		c18.7,15.4,68.1,56.8,110.2,92.2c124.9,105.6,163,131.6,195.1,132.3C5052.7,2283.5,5053.4,2281.5,5047.4,2274.2z M8064.7,2248.8
		c4-3.3,10.7-16,14.7-27.4l7.3-21.4l-14.7,18c-8.7,10-26.1,24.1-38.8,32.1l-23.4,14l23.4-4C8046,2257.5,8060,2252.1,8064.7,2248.8z
		 M7164.7,2254.2c0-1.3-28.1-20.7-61.5-42.8c-56.8-37.4-175.1-94.9-194.4-94.9c-16.7,0.7-120.9,46.1-111.6,49.4
		c42.8,14.7,136.3,39.4,200.4,53.5c86.9,18.7,163,35.4,165.7,36.7C7164,2256.2,7164.7,2255.5,7164.7,2254.2z M4732.7,2230.8
		c0-2.7-18-26.1-40.8-51.4c-22-25.4-80.2-104.9-128.3-176.4c-94.9-141-167.7-223.2-194.4-219.1c-8.7,1.3-14.7,7.3-16,17.4
		c-2,12,0.7,14.7,16.7,14.7c22.7,0,48.1,28.1,124.3,137c100.2,143,139.6,194.4,183.7,239.2C4720,2234.8,4732.7,2243.5,4732.7,2230.8
		z M8039.3,2194c14.7-13.4,30.1-44.1,36.7-74.2c4-17.4,2.7-16.7-14.7,10.7c-20,30.7-53.5,52.8-80.8,52.8c-8,0-25.4-4.7-38.1-10
		l-24.1-10l9.4,15.4c5.3,8,12,18.7,14.7,24.1C7950.4,2216.1,8021.9,2209.4,8039.3,2194z M7983.8,2133.9c2-5.3-2.7-20.7-10-35.4
		l-13.4-25.4l-0.7,35.4c0,26.7,2,34.7,10,34.7C7975.8,2143.2,7981.8,2139.2,7983.8,2133.9z M4572.3,2108.5
		c0-15.4-27.4-42.1-53.5-51.4c-38.1-12.7-31.4,16.7,10.7,51.4C4555.6,2129.9,4572.3,2129.9,4572.3,2108.5z M7927,2089.8l-4.7-36.7
		l-4,30.1c-2.7,18-1.3,33.4,2.7,38.1C7931,2133.9,7931.7,2131.2,7927,2089.8z M8031.9,2093.8c2.7-12-31.4-52.8-54.1-65.5
		c-11.4-6-11.4-4.7-4,9.4C8009.9,2107.2,8026.6,2123.2,8031.9,2093.8z M7898.3,2041.7c-1.3-8-4.7-10-11.4-6c-6,4-7.3,12-4,28.1
		c5.3,22,5.3,22.7,11.4,6C7897.6,2061.1,7899.6,2048.4,7898.3,2041.7z M8065.3,2027c-1.3-10-10.7-15.4-35.4-22
		c-50.1-12.7-53.5-8-15.4,22C8051.3,2055.7,8069.3,2055.7,8065.3,2027z M6613.5,1989.6c24.1-12,40.8-27.4,58.8-53.5
		c14-20,30.1-42.8,36.1-49.4c14.7-18,27.4-62.1,32.1-112.2l4-42.1l-13.4,48.8c-24.7,89.5-60.1,138.3-124.3,170.4
		c-70.8,36.1-126.3,30.1-182.4-19.4c-37.4-32.7-100.9-114.3-101.6-129.6c-0.7-5.3-8-23.4-17.4-40.1c-20-36.1-14.7-12.7,9.4,43.4
		c36.1,83.5,76.8,133.6,145,178.4c37.4,24.7,42.8,26.1,80.2,24.1C6565.4,2006.9,6592.8,1999.6,6613.5,1989.6z M7884.9,2001.6
		c12-12,10-18.7-5.3-18.7c-8.7,0-13.4,4.7-13.4,13.4C7866.2,2011.6,7872.9,2013.6,7884.9,2001.6z M7941.7,1975.5
		c4.7-17.4-8-46.1-20-46.1c-9.4,0-12,30.1-4.7,49.4C7923,1994.2,7937.7,1992.2,7941.7,1975.5z M8072,1960.8
		c1.3-18.7-0.7-24.7-8-24.7c-5.3,0-11.4,2.7-13.4,6s-18.7,9.4-37.4,14c-18,4.7-33.4,10.7-33.4,13.4c0,5.3,70.2,19.4,83.5,16.7
		C8067.3,1985.6,8070.7,1974.2,8072,1960.8z M4444,1945.5c7.3-4.7-14.7-29.4-26.1-29.4c-16,0-22,14-16.7,36.7
		C4406,1970.9,4406,1970.9,4444,1945.5z M7886.3,1949.5c0-7.3-4.7-13.4-10-13.4c-10,0-14,14-5.3,22
		C7878.9,1966.9,7886.3,1962.8,7886.3,1949.5z M8024.6,1924.8c20-6.7,28.7-14,32.1-26.7c8-32.7-7.3-32.7-46.8,0.7
		c-36.1,31.4-48.1,50.1-24.7,40.8C7991.2,1936.8,8009.2,1930.1,8024.6,1924.8z M6489.9,1920.1c0-2-13.4-29.4-30.1-62.1l-30.1-58.8
		l4,50.1c5.3,62.1,6.7,64.8,51.4,72.8C6487.9,1922.1,6489.9,1921.4,6489.9,1920.1z M6532.6,1906.1c18.7-14,9.4-34.1-40.1-86.9
		c-24.7-25.4-43.4-43.4-42.1-39.4c6.7,20,63.5,136.3,66.1,136.3C6518.6,1915.4,6525.3,1911.4,6532.6,1906.1z M7888.3,1892.7
		c-13.4-16.7-22-16-22,3.3c0,6.7,5.3,13.4,12,15.4C7897,1915.4,7900.3,1909.4,7888.3,1892.7z M8028.6,1831.2
		c-8-20.7-26.7-8-42.8,29.4c-8.7,21.4-17.4,40.8-18,43.4c-1.3,3.3,12.7-10,30.7-29.4C8016.6,1855.3,8030.6,1835.9,8028.6,1831.2z
		 M7969.8,1839.2c9.4-27.4,16-52.8,13.4-56.8c-7.3-12-22.7-7.3-26.1,8.7c-4,18.7-10,98.2-7.3,98.2
		C7950.4,1889.4,7959.8,1866.6,7969.8,1839.2z M7897.6,1843.9c-7.3-27.4-18-38.1-18-17.4c0,10,20.7,50.8,24.1,47.4
		C7904.3,1873.3,7901.6,1860,7897.6,1843.9z M6584.1,1855.9c6.7-4,12.7-11.4,12.7-16.7c0-8.7-111.6-80.8-116.9-75.5
		c-2,2,83.5,96.9,88.9,98.2C6570.1,1862.6,6576.7,1859.3,6584.1,1855.9z M6396.3,1814.5c0-26.1-9.4-38.8-16-21.4
		c-5.3,14-5.3,52.8,0.7,58.1C6388.3,1859.3,6396.3,1840.6,6396.3,1814.5z M7932.4,1775.8c0.7-21.4,0-22-10-12c-9.4,8.7-10,18-6,50.1
		l5.3,38.8l5.3-26.7C7929.7,1811.2,7932.4,1788.5,7932.4,1775.8z M8040,1785.8c0-29.4-50.8-64.8-78.2-54.1c-8.7,3.3-4,8.7,21.4,24.1
		c18.7,10,37.4,25.4,42.1,32.7C8035.9,1806.5,8040,1805.8,8040,1785.8z M6630.2,1761.7c0-8.7-11.4-14-46.1-22.7
		c-25.4-6-53.5-10-61.5-8.7c-13.4,1.3-6,8,37.4,33.4c48.8,28.7,54.1,30.7,62.1,20.7C6626.2,1778.4,6630.2,1768.4,6630.2,1761.7z
		 M6675,1769.1c2-7.3,6-13.4,8.7-13.4c6.7,0,16.7-31.4,22.7-68.1c10-57.5-31.4-197.8-70.8-243.2c-27.4-31.4-92.9-69.5-118.3-69.5
		c-27.4,0-22.7,7.3,23.4,36.7c38.8,24.7,68.8,65.5,104.2,141c22.7,48.1,31.4,134.3,20,195.1c-4,22-4,34.7,0,34.7
		S6672.9,1776.4,6675,1769.1z M6358.3,1754.4c2.7-8,3.3-15.4,2.7-16.7c-4.7-4.7-31.4,19.4-28.1,25.4
		C6340.2,1774.4,6354.9,1769.1,6358.3,1754.4z M8033.9,1729.7c-9.4-16.7-43.4-45.4-61.5-50.8c-19.4-6.7-44.8,1.3-52.8,16
		c-6,12-4,12.7,19.4,9.4c30.7-4,68.1,6.7,84.2,24.7C8038.6,1745.7,8042.6,1745.7,8033.9,1729.7z M6436.4,1716.3
		c17.4-33.4-2-105.6-24.1-86.9c-16.7,14-8,99.6,10,99.6C6426.4,1729,6432.4,1723,6436.4,1716.3z M6748.4,1657.5
		c-1.3-10.7-2.7-2-2.7,18s1.3,28.7,2.7,18.7C6749.8,1683.6,6749.8,1667.5,6748.4,1657.5z M6633.5,1677.6c-2.7-14-5.3-26.1-6-26.7
		c0-0.7-14,1.3-30.7,4.7c-16.7,3.3-44.8,8-62.1,10c-18,2.7-31.4,6-29.4,8c3.3,3.3,106.2,26.7,124.3,28.1
		C6636.2,1702.3,6637.5,1696.3,6633.5,1677.6z M7896.3,1688.9c10.7-11.4,10.7-13.4,2-10c-6,2.7-12.7,8.7-14.7,14
		C7878.9,1705.6,7882.3,1704.9,7896.3,1688.9z M6346.2,1682.9c-4-3.3-13.4-8-21.4-10.7c-11.4-3.3-15.4-1.3-15.4,6
		s6.7,10.7,21.4,10.7C6343.6,1688.9,6349.6,1686.2,6346.2,1682.9z M6566.7,1628.1c31.4-8,56.8-16.7,56.8-19.4s-3.3-14-7.3-25.4
		l-6.7-20L6566,1586c-60.8,32.1-69.5,38.1-69.5,47.4C6496.6,1644.8,6500.6,1644.8,6566.7,1628.1z M6359.6,1629.4
		c2-4-7.3-14-21.4-23.4l-25.4-17.4l-5.3,14.7c-5.3,16-1.3,22.7,18.7,27.4C6348.2,1636.1,6355.6,1635.5,6359.6,1629.4z
		 M4388.6,1570.6c-2.7-18-7.3-34.7-10.7-38.1c-7.3-8-32.7,14-32.7,28.7c0,17.4,19.4,40.8,34.7,40.8
		C4392.6,1602.1,4393.3,1599.4,4388.6,1570.6z M6542.7,1562c26.1-19.4,47.4-36.1,47.4-38.1c0-1.3-6.7-11.4-14-22l-14.7-18.7
		l-16.7,20.7c-10,12-28.7,34.1-42.8,49.4c-25.4,28.1-34.1,53.5-16,46.8C6490.5,1598,6515.9,1580.7,6542.7,1562z M4428.7,1555.3
		c-4-18-1.3-24.1,20-43.4c13.4-12.7,31.4-25.4,40.8-27.4c17.4-4.7,19.4-10.7,9.4-30.1c-6.7-12-8.7-12-26.7-2.7
		c-30.7,16-67.5,68.1-62.8,89.5c6.7,29.4,8.7,34.1,16,34.1C4430.7,1575.3,4431.4,1568,4428.7,1555.3z M6416.4,1491.8
		c0-80.8-2.7-87.5-29.4-68.1c-11.4,8-11.4,10.7-0.7,51.4c21.4,83.5,24.1,93.5,26.7,93.5C6415,1568.6,6416.4,1533.9,6416.4,1491.8z
		 M6370.3,1537.9c-4-10.7-10-32.7-14-48.8l-7.3-29.4l-16.7,24.7l-16.7,24.7l28.7,26.1c16,14,29.4,24.7,30.7,24.1
		C6375.6,1558,6373.6,1548.6,6370.3,1537.9z M6509.9,1481.8c19.4-32.7,20-35.4,8.7-44.1c-24.1-18-32.1-11.4-44.8,39.4
		c-6.7,26.1-13.4,57.5-15.4,68.1l-3.3,20l17.4-24.1C6481.9,1527.9,6498.6,1501.2,6509.9,1481.8z M6256.7,1403.6
		c8-20,28.7-54.1,46.8-75.5c35.4-42.8,33.4-48.1-13.4-42.1c-30.7,4-52.8,26.7-66.8,68.1c-8,24.7-10,162.4-2.7,170.4
		c2.7,2.7,8.7-15.4,14-40.1C6239.3,1460.4,6249.3,1423.7,6256.7,1403.6z M6340.2,1407.6c18-20.7,44.8-47.4,58.8-60.1
		c24.7-21.4,29.4-22.7,73.5-22.7c40.8,0,54.8,4,94.9,23.4c44.1,22,46.8,22,37.4,8c-5.3-8.7-28.7-24.7-50.8-36.1
		c-52.1-26.1-110.9-32.1-147-15.4c-32.7,15.4-80.8,75.5-108.2,133.6c-28.1,60.1-37.4,101.6-10.7,46.8
		C6298.8,1463.1,6322.8,1428.3,6340.2,1407.6z M6167.2,1490.5c6-15.4,12.7-96.2,9.4-126.3c-1.3-14-187.1-60.8-277.9-70.2
		c-98.9-9.4-106.2-8-63.5,9.4c80.8,33.4,208.5,111.6,277.9,171c21.4,18.7,40.8,33.4,42.8,34.1
		C6157.8,1508.5,6162.5,1500.5,6167.2,1490.5z M4574.3,1487.8c36.7-0.7,39.4-6.7,21.4-45.4c-22.7-48.1-16-56.8,39.4-52.1
		c39.4,3.3,40.8,4.7,81.5,49.4c48.1,52.1,57.5,44.1,20.7-18c-19.4-32.7-26.1-38.1-58.8-48.8c-32.7-11.4-42.8-12-110.2-4l-74.8,8
		l18,30.7c16,28.1,22.7,41.4,37.4,84.2c3.3,8.7,6,10,8,5.3C4559,1492.5,4566.3,1488.5,4574.3,1487.8z M6075.6,1487.8
		c-54.8-43.4-156.3-114.9-193.8-135c-46.8-26.1-114.3-46.8-131-40.1c-5.3,2-12.7,9.4-16.7,16.7c-10.7,20,8.7,34.7,64.1,48.1
		c53.5,13.4,141.6,50.1,223.8,93.5C6083,1503.8,6102.4,1509.8,6075.6,1487.8z M4842.3,1392.9c6.7-28.1,26.7-32.7,214.5-50.8
		c178.4-17.4,253.9-28.1,263.2-37.4c5.3-5.3,8-11.4,5.3-14c-12-12-437,42.8-475.7,61.5c-20,9.4-23.4,14-23.4,33.4
		C4826.2,1411.6,4836.2,1415.6,4842.3,1392.9z M6185.9,1280c0.7-1.3,3.3-8.7,6-16c4.7-14.7,4-14.7-167.7-18.7
		c-94.9-2-197.1-6-227.2-8c-48.1-3.3-55.5-2.7-55.5,6.7c0,8.7,8.7,10.7,52.8,10.7c29.4,0,99.6,6,155.7,13.4
		c56.1,6.7,115.6,14,132.3,15.4C6112.4,1286.7,6182.5,1284,6185.9,1280z"/>
	<path class="st4" d="M6094.3,2606.3c-16.7-2-25.4-6-25.4-12.7s8-9.4,25.4-9.4c81.5,0,374.8-38.1,470.4-61.5
		c31.4-7.3,62.1-12,68.1-10c11.4,4.7,14,22.7,4.7,36.7c-10.7,16.7-193.1,43.4-351.4,51.4c-44.1,2-99.6,4.7-123.6,6
		C6138.4,2608.3,6107.7,2607.6,6094.3,2606.3z"/>
	<path class="st4" d="M7806.1,2244.8c-6-2.7-36.1-21.4-66.8-42.1c-31.4-20.7-69.5-44.1-85.5-52.1s-30.1-18.7-32.1-23.4
		s10-36.7,26.1-72.2c16-34.7,34.7-78.8,40.8-97.5c6.7-19.4,16-39.4,22-44.8c8.7-8.7,12.7-8,38.1,10c32.1,21.4,37.4,36.1,37.4,100.9
		c0,42.8-4,46.1-33.4,29.4c-30.1-17.4-28.7-10.7,4.7,19.4c37.4,34.1,34.7,47.4-4.7,21.4c-35.4-23.4-48.8-22-16,2
		c33.4,24.1,59.5,52.8,54.1,58.1c-2.7,2.7-21.4-6.7-42.1-20c-20.7-14-38.8-24.1-40.1-22c-1.3,1.3,19.4,19.4,46.1,40.1
		c58.1,44.8,68.1,55.5,74.2,80.2C7833.5,2250.8,7827.5,2254.2,7806.1,2244.8z"/>
	<path class="st4" d="M7301,1735c-43.4-22.7-113.6-60.1-155-84.2c-42.1-24.1-96.2-51.4-120.3-62.1c-67.5-27.4-81.5-34.7-81.5-41.4
		c0-10.7,28.7-4.7,115.6,24.1c185.7,62.8,346.8,105.6,452.3,120.9c97.5,14,98.9,14.7,86.2,26.1c-20,18.7-157,57.5-202.4,57.5
		C7387.2,1775.8,7345.1,1757.7,7301,1735z"/>
	<path class="st4" d="M6865.4,1724.3c-3.3-6.7-10-43.4-14-82.2c-4.7-38.8-10-76.8-11.4-84.2c-8-32.7,40.1-21.4,82.2,18.7l21.4,20.7
		l-22,24.7c-22,24.1-33.4,50.1-40.1,89.5C6876.7,1736.3,6873.4,1739.7,6865.4,1724.3z"/>
	<path class="st4" d="M5136.9,2003.6c-162.4-76.8-316.7-177.1-410.9-265.9l-30.1-28.1l-43.4,6c-55.5,8-107.6,8-120.3,0
		c-16.7-10.7,0-18,67.5-29.4l64.8-11.4l-27.4-40.1c-18.7-26.7-31.4-38.8-38.1-36.7c-5.3,2-26.7,9.4-46.8,16.7
		c-47.4,17.4-82.2,18.7-78.8,2.7c1.3-7.3,10.7-13.4,25.4-15.4c33.4-6,49.4-16,77.5-50.1c22.7-28.1,26.7-30.1,55.5-30.1
		c16.7,0,36.7,4.7,43.4,10c27.4,20.7,118.3,12,334.7-32.7c26.1-5.3,60.1-12,76.2-14.7c16-2,50.8-11.4,76.8-20
		c28.7-10,48.8-14,52.8-10c12,12-50.8,32.1-265.9,84.9c-113.6,28.1-135.6,31.4-207.8,32.1c-92.9,0.7-90.2-3.3-43.4,59.5
		c21.4,28.7,26.1,32.1,44.1,28.7c11.4-2,56.1-6.7,100.2-10.7c44.1-3.3,104.2-12.7,133.6-19.4c62.1-15.4,217.1-26.1,217.1-16
		c0,4-14,9.4-31.4,11.4c-28.7,4-112.2,20-248.5,47.4c-27.4,6-71.5,12-98.9,14.7c-26.7,2-50.8,6-52.1,8.7
		c-4.7,7.3,78.2,83.5,143.6,132.3c31.4,23.4,104.9,70.8,163.7,104.9c118.9,69.5,155.7,96.2,133.6,96.2
		C5196.4,2029,5166.3,2017.6,5136.9,2003.6z"/>
	<path class="st4" d="M6018.8,1989.6c-168.4-34.7-296-86.2-416.2-169c-76.2-52.8-181.7-175.1-189.8-220.5
		c-4-20.7,8.7-38.1,26.7-38.1c21.4,0.7,84.9,30.7,148.3,70.8c85.5,54.1,216.5,131,257.2,151c102.9,50.8,207.1,113.6,283.3,171
		c42.1,31.4,47.4,38.1,36.7,42.1C6143.8,2005.6,6081.6,2002.3,6018.8,1989.6z M6005.5,1942.8c8-12.7-3.3-30.1-29.4-44.8
		c-18-10-28.1-12.7-31.4-8c-2,4-13.4,12.7-24.1,19.4l-20.7,12l42.8,13.4C5993.5,1950.8,6000.1,1951.5,6005.5,1942.8z M5781.7,1872.6
		c0-6.7-6.7-10-17.4-10c-14.7,0-16.7,1.3-9.4,10c4.7,5.3,12.7,10,17.4,10C5777.6,1882.7,5781.7,1878,5781.7,1872.6z M5860.5,1834.6
		c-1.3-4-6.7-9.4-10.7-10.7c-4.7-1.3-6.7,1.3-4,8C5850.5,1843.9,5864.5,1846.6,5860.5,1834.6z M5640.7,1785.8
		c7.3-12.7,22-26.7,32.1-30.7c18-7.3,17.4-8-40.8-36.7c-101.6-50.1-118.3-34.7-50.1,43.4c22.7,26.1,42.1,47.4,42.8,47.4
		C5626,1809.2,5632.7,1798.5,5640.7,1785.8z"/>
	<path class="st4" d="M4966.5,1582.7c0-6,28.1-12.7,96.9-24.7c42.8-7.3,193.1-66.8,242.5-95.5c24.7-14.7,62.1-42.1,84.2-61.5
		l38.8-34.7l82.8,6c102.2,8,115.6,16,82.8,48.8c-52.1,51.4-197.1,112.2-332.7,138.3C5130.9,1584.7,4966.5,1597.4,4966.5,1582.7z"/>
	<path class="st4" d="M8762.9,1968.2c-4.7-4.7-8-11.4-8-15.4s39.4-48.8,87.5-99.6l88.2-91.5l139,2c76.2,1.3,140.3,4,143,6
		c2,2.7,14.7,44.1,28.1,92.9c17.4,64.8,22,91.5,17.4,99.6c-6,9.4-34.7,10.7-246.5,12.7C8829.7,1976.2,8768.9,1974.2,8762.9,1968.2z"
		/>
	<path class="st4" d="M9377.6,1964.8c-3.3-6.7-25.4-85.5-48.1-175.7l-41.4-163.7l-52.8-39.4c-29.4-21.4-54.8-37.4-56.8-35.4
		c-2.7,2,2.7,34.1,10.7,71.5c8,36.7,12.7,71.5,10.7,76.8c-2.7,8.7-26.1,10-139.6,10c-101.6,0-138.3-2-143.6-8
		c-11.4-14.7-89.5-294-85.5-308.7c2-8,12.7-26.7,24.1-42.1l21.4-28.7h189.8H9256l26.1,23.4c14,12.7,27.4,23.4,30.1,23.4
		c2,0,12-12,21.4-26.7l18-26.7h148.3h149l152.3,118.9l152.3,118.3l61.5,207.1c33.4,114.3,59.5,209.1,58.1,212.5
		c-1.3,2.7-68.2,4.7-148.3,4.7c-144.3,0-145.7,0-152.3-14.7c-4-8.7-22.7-88.2-42.1-177.1l-35.4-161.7l-66.1-44.1
		c-36.7-24.7-68.2-42.8-70.2-41.4c-1.3,2,20,92.9,48.1,202.4c28.1,109.6,50.1,206.5,48.8,215.8l-2,17.4l-135,2
		C9394.9,1976.2,9382.9,1975.5,9377.6,1964.8z"/>
	<path class="st4" d="M10174.6,1969.5c-7.3-2.7-26.1-18.7-41.4-34.7c-32.7-33.4-33.4-36.7-105.6-339.4
		c-24.1-100.9-46.8-191.1-50.1-199.8c-6-13.4-3.3-20.7,20-51.4l27.4-36.1h269.9h269.9l50.1,40.1c28.1,22,50.8,42.1,50.8,44.1
		s27.4,108.2,60.1,235.9c33.4,127.6,60.1,239.9,60.1,248.5s-12,34.7-26.7,58.1l-26.1,41.4l-272.6-0.7
		C10310.3,1975.5,10182,1972.9,10174.6,1969.5z M10465.3,1754.4c-0.7-4.7-12-55.5-26.1-112.2l-25.4-103.6l-61.5-2
		c-56.8-2-61.5-0.7-58.1,10c2,6.7,11.4,46.8,20.7,88.9c9.4,42.1,20,88.2,24.1,102.2l6.7,24.7h59.5
		C10449.2,1762.4,10465.3,1760.4,10465.3,1754.4z"/>
	<path class="st4" d="M10875.5,1970.9c-4-2.7-9.4-10.7-12-18c-12.7-32.1-163.7-634.1-160.4-639.4c2-2.7,64.8-5.3,139.6-5.3
		c123.6,0,137,1.3,142.3,12c3.3,6,16,49.4,28.1,96.9l22,84.9h52.8c47.4,0,52.8-1.3,49.4-11.4c-15.4-53.5-38.1-165-34.7-172.4
		c2.7-8.7,26.7-10,144.3-10c139.6,0,141,0,147,15.4c7.3,16.7,53.5,232.5,53.5,249.2c0,6-10.7,22.7-23.4,38.1l-23.4,27.4l35.4,18.7
		c18.7,10.7,38.8,23.4,43.4,28.1c4.7,4.7,18.7,44.1,30.7,88.2c34.7,124.9,34.1,117.6,3.3,156.3c-14.7,18.7-34.1,36.7-43.4,40.1
		C11450.1,1977.5,10886.2,1978.2,10875.5,1970.9z M11200.2,1754.4c0-4.7-2-15.4-4-23.4c-4-14-8-15.4-53.5-15.4h-49.4v23.4v23.4h53.5
		C11184.9,1762.4,11200.2,1759.7,11200.2,1754.4z"/>
	<path class="st4" d="M11618.5,1963.5c-12-13.4-173-626.7-167.7-640.1c2-6.7,68.2-8.7,298.7-8.7c163,0,300,2.7,304,5.3
		c4.7,2.7,18,46.8,29.4,96.9c16,73.5,18.7,94.2,12.7,101.6c-6.7,8-34.7,10-158.3,10c-139.6,0-149.7,0.7-146.3,12
		c16.7,56.8,104.2,402.2,104.2,413.6c0,7.3-4.7,16-10.7,18s-65.5,4-132.3,4C11641.9,1976.2,11628.5,1974.9,11618.5,1963.5z"/>
	<path class="st4" d="M12283.3,1963.5c-8.7-15.4-167.7-632.7-167.7-649.4c0-12,10-12.7,301.3-12.7h300.7l55.5,46.8l54.8,46.1
		l62.1,244.5c34.7,138.3,60.1,251.9,58.1,259.9s-14.7,29.4-27.4,46.1l-24.1,31.4h-303.3
		C12304.7,1976.2,12289.3,1975.5,12283.3,1963.5z M12623.4,1740.4c0-10.7-51.4-196.4-56.8-205.1c-4-6-96.9-10-96.9-4
		s54.8,207.8,58.1,213.1C12533.2,1753.1,12623.4,1749.7,12623.4,1740.4z"/>
	<path class="st4" d="M7679.2,1429.7c-94.2-4-300.7-28.7-364.1-44.1c-36.7-8.7-141.6-32.7-233.8-53.5
		c-157.7-34.7-328.7-85.5-410.2-121.6c-20-8.7-34.7-18-32.7-19.4c2-2,42.1,4,89.5,13.4c177.1,35.4,383.5,63.5,467,63.5h26.1
		l-30.1-31.4c-56.8-59.5-106.9-123.6-104.9-135c2.7-13.4,74.2-14.7,208.5-2c291.3,26.7,775,151.7,869.2,223.8
		c24.7,19.4,6.7,16.7-66.8-8c-137.6-47.4-346.1-87.5-477.7-92.2l-90.2-2.7l34.1,32.1c18.7,17.4,74.2,58.8,123.6,91.5
		c90.9,60.8,102.9,70.8,94.2,78.2C7774,1428.3,7728.6,1431.7,7679.2,1429.7z"/>
</g>
</svg>
