<?xml version="1.0" encoding="utf-8"?>
<!-- Generator: Adobe Illustrator 28.3.0, SVG Export Plug-In . SVG Version: 6.00 Build 0)  -->
<svg version="1.1" id="Слой_1" xmlns="http://www.w3.org/2000/svg" xmlns:xlink="http://www.w3.org/1999/xlink" x="0px" y="0px"
	 viewBox="0 0 626 527" enable-background="new 0 0 626 527" xml:space="preserve">
<g>
	<rect x="0.5" y="0.5" fill="#FFFFFF" width="625" height="526"/>
	<path d="M625,1v525H1V1H625 M626,0H0v527h626V0L626,0z"/>
</g>
<g>
	<rect x="-1" y="1" fill="#342800" stroke="#B99514" stroke-width="2" stroke-miterlimit="10" width="626" height="527"/>
	<path fill="#E0C84D" d="M454.2,174.42l118.07,3.32c2.05,0.11,3.18-2.43,1.7-3.98L458.86,50.38c-1.36-1.55-3.86-0.55-3.98,1.55
		l-2.84,120.05C451.93,173.31,452.95,174.31,454.2,174.42z"/>
	<path fill="#E0C84D" d="M192.73,171.21L75.68,187.14c-2.05,0.22-3.41-2.1-2.16-3.76l101.82-135.1c1.25-1.66,3.86-1,4.09,1.11
		l15.23,119.06C194.89,169.88,193.98,170.99,192.73,171.21z"/>
	<path fill="#E0C84D" d="M448.41,149.41H184.2c-7.95,0-14.55-6.64-14.55-14.83V60.23c0-8.08,6.59-14.83,14.55-14.83h264.2
		c7.95,0,14.55,6.64,14.55,14.83v74.35C462.95,142.77,456.36,149.41,448.41,149.41z"/>
	<path fill="#E0C84D" d="M537.05,248H100.11c-34.77,0-62.95-28.66-62.95-64.06l0,0c0-35.41,28.18-64.06,62.95-64.06h436.93
		c34.77,0,62.95,28.66,62.95,64.06l0,0C600,219.34,571.7,248,537.05,248z"/>
	<g>
		<ellipse fill="#E0C84D" stroke="#342800" stroke-miterlimit="10" cx="153.41" cy="247.33" rx="51.82" ry="52.67"/>
		<g>
			<ellipse fill="#342800" cx="152.73" cy="246.67" rx="18.52" ry="18.81"/>
		</g>
	</g>
	<g>
		<ellipse fill="#E0C84D" stroke="#342800" stroke-miterlimit="10" cx="467.39" cy="247.33" rx="51.82" ry="52.67"/>
		<g>
			<ellipse fill="#342800" cx="467.39" cy="247.33" rx="18.52" ry="18.81"/>
		</g>
	</g>
	<path fill="#342800" stroke="#342800" stroke-miterlimit="10" d="M206.48,54.92l44.66,47.58c4.2,4.54,0.91,11.73-5.34,11.73h-89.2
		c-6.25,0-9.55-7.19-5.34-11.73l44.66-47.58C198.75,51.93,203.64,51.93,206.48,54.92z"/>
	<path fill="#342800" d="M361.02,114.22h-86.59c-7.16,0-12.84-5.64-12.84-12.5V66.09c0-6.97,5.8-12.5,12.84-12.5h86.59
		c7.16,0,12.84,5.64,12.84,12.5v35.52C373.98,108.58,368.18,114.22,361.02,114.22z"/>
	<path fill="#342800" stroke="#342800" stroke-miterlimit="10" d="M442.84,54.92l44.66,47.58c4.2,4.54,0.91,11.73-5.34,11.73h-89.2
		c-6.25,0-9.55-7.19-5.34-11.73l44.66-47.58C435,51.93,439.89,51.93,442.84,54.92z"/>
	<path fill="#342800" d="M568.52,191.68h-11.7c-7.16,0-12.84-5.64-12.84-12.5v-9.07c0-6.97,5.8-12.5,12.84-12.5h11.7
		c7.16,0,12.84,5.64,12.84,12.5v9.07C581.36,186.03,575.68,191.68,568.52,191.68z"/>
	<rect x="261.59" y="170.1" fill="#342800" width="30.23" height="9.07"/>
	<g>
		<g>
			<path fill="#E0C84D" stroke="#B99514" stroke-width="2" stroke-miterlimit="10" d="M143.15,397.36v-2.56l5.05-2.28
				c1.39-0.64,2.44-1.73,2.96-3.29l21.17-58.6l6.36-13.42h8.8l25.88,72.02c0.26,0.73,0.61,1.37,1.13,2.01
				c0.52,0.55,1.05,1,1.57,1.28c0.09,0,0.09,0,0.17,0.09l5.05,2.28V399h-32.85v-4.11l9.06-2.92l-17.17-47.28l-2.18-7.76h-0.61
				l-19.26,54.77l8.97,3.1v4.11l0,0c-0.17,0.09-17.34,0.09-22.65,0.09C143.76,398.91,143.15,398.27,143.15,397.36z M164.85,371.71
				l2.7-7.49h20.82l2.7,7.49H164.85z"/>
			<path fill="#E0C84D" stroke="#B99514" stroke-width="2" stroke-miterlimit="10" d="M260.64,400.83c-6.53,0-12.02-1.1-16.38-3.38
				c-4.44-2.28-7.75-5.2-10.02-8.95c-2.27-3.65-3.4-7.67-3.4-11.96v-48.29c0-0.82-0.26-1.55-0.7-2.01c-0.44-0.46-1.05-0.91-1.66-1.1
				l-7.23-2.56v-4.11h35.11v4.11l-7.23,2.56c-0.61,0.18-1.13,0.55-1.66,1.1c-0.44,0.55-0.7,1.19-0.7,2.01v42.9
				c0,2.1,0.17,4.29,0.61,6.57c0.44,2.28,1.22,4.47,2.44,6.57c1.22,2.01,2.96,3.74,5.23,5.02c2.27,1.28,5.23,1.92,8.89,1.92
				s6.71-0.64,9.06-2.01c2.35-1.37,4.27-3.01,5.58-5.11s2.35-4.29,2.88-6.57c0.52-2.28,0.78-4.47,0.78-6.57v-42.26
				c0-0.82-0.26-1.55-0.7-2.01s-0.96-0.82-1.66-1.1l-7.14-3.01v-4.11h26.92v4.11l-7.23,3.01c-0.61,0.18-1.22,0.64-1.66,1.1
				s-0.7,1.19-0.7,2.01v45.37c0,4.84-0.96,8.95-2.88,12.32c-1.92,3.38-4.44,6.21-7.49,8.31c-3.05,2.1-6.27,3.65-9.67,4.66
				C266.74,400.28,263.6,400.83,260.64,400.83z"/>
			<path fill="#E0C84D" stroke="#B99514" stroke-width="2" stroke-miterlimit="10" d="M327.38,399.8v-4.02l8.1-2.65
				c0.7-0.18,1.31-0.64,1.66-1.1s0.61-1.19,0.61-2.01v-62.99h-15.51c-0.7,0-1.13,0.18-1.48,0.55c-0.35,0.37-0.61,0.91-0.78,1.46
				l-3.83,12.6h-4.88v-22.27h69.01v22.27h-4.88l-3.83-12.6c-0.17-0.64-0.44-1.1-0.78-1.46c-0.35-0.37-0.78-0.55-1.39-0.55h-15.68
				v62.99c0,0.91,0.26,1.55,0.7,2.1s1.05,0.91,1.66,1.1l8.1,2.65v4.02L327.38,399.8L327.38,399.8z"/>
			<path fill="#E0C84D" stroke="#B99514" stroke-width="2" stroke-miterlimit="10" d="M428.31,401.72c-7.84,0-14.55-1.73-20.04-5.29
				c-5.4-3.56-9.58-8.49-12.46-14.79c-2.88-6.3-4.27-13.69-4.27-22c0-7.94,1.48-15.06,4.36-21.36c2.96-6.3,7.14-11.32,12.63-15.06
				s12.11-5.57,19.78-5.57c8.36,0,15.25,1.92,20.65,5.66c5.4,3.74,9.41,8.85,12.02,15.15c2.61,6.39,3.92,13.42,3.92,21.18
				c0,5.11-0.7,10.22-2.09,15.24c-1.39,5.02-3.57,9.49-6.53,13.6c-2.96,4.02-6.8,7.3-11.41,9.68
				C440.33,400.44,434.84,401.72,428.31,401.72z M429.09,394.33c4.18,0,7.67-1.46,10.46-4.29c2.79-2.83,4.79-6.75,6.19-11.78
				c1.39-4.93,2.09-10.59,2.09-16.89c0-7.3-0.7-13.69-2.18-19.08c-1.48-5.48-3.66-9.68-6.62-12.78c-2.96-3.01-6.8-4.56-11.5-4.56
				c-4.44,0-8.02,1.55-10.8,4.56c-2.7,3.01-4.71,7.03-6.01,11.96s-1.83,10.31-1.83,16.16c0,7.12,0.7,13.51,2.09,18.99
				s3.57,9.86,6.62,12.96C420.55,392.77,424.39,394.33,429.09,394.33z"/>
			<path fill="#E0C84D" stroke="#B99514" stroke-width="2" stroke-miterlimit="10" d="M136.78,505.89l-20.3-71.84
				c-0.17-0.73-0.52-1.37-1.05-1.92s-1.13-1-1.83-1.28l-4.88-2.19v-4.11h32.5v4.11l-9.06,2.83l13.16,46.55l1.31,5.39h0.35
				l12.72-43.82l5.49-14.51h8.71l15.07,52.76l1.48,5.93h0.35l15.16-51.67l-8.89-3.47v-4.11h24.31v4.11l-4.97,2.65
				c-0.52,0.27-1.13,0.73-1.74,1.37c-0.61,0.64-0.96,1.28-1.22,2.01l-17.25,56.69l-5.4,14.42h-9.85l-13.85-48.56l-1.92-7.67h-0.35
				l-12.29,41.9l-5.49,14.42L136.78,505.89L136.78,505.89z"/>
			<path fill="#E0C84D" stroke="#B99514" stroke-width="2" stroke-miterlimit="10" d="M271.89,506c-7.84,0-14.55-1.73-20.04-5.29
				c-5.4-3.56-9.58-8.49-12.46-14.79s-4.27-13.69-4.27-22c0-7.94,1.48-15.06,4.36-21.36c2.96-6.39,7.14-11.32,12.63-15.06
				c5.49-3.74,12.11-5.57,19.78-5.57c8.36,0,15.25,1.92,20.65,5.66c5.4,3.74,9.41,8.85,12.02,15.15c2.61,6.3,3.92,13.42,3.92,21.18
				c0,5.11-0.7,10.22-2.09,15.24c-1.39,5.02-3.57,9.49-6.53,13.6c-2.96,4.02-6.8,7.3-11.41,9.68
				C283.92,504.81,278.34,506,271.89,506z M272.68,498.61c4.18,0,7.67-1.46,10.46-4.29c2.79-2.92,4.79-6.75,6.19-11.78
				c1.39-5.02,2.09-10.59,2.09-16.89c0-7.3-0.7-13.69-2.18-19.08c-1.48-5.48-3.66-9.68-6.62-12.78c-2.96-3.1-6.8-4.56-11.5-4.56
				c-4.44,0-8.02,1.55-10.8,4.56c-2.7,3.01-4.71,7.03-6.01,11.96c-1.22,4.93-1.83,10.31-1.83,16.16c0,7.12,0.7,13.51,2.09,18.99
				c1.39,5.48,3.57,9.86,6.62,12.96C264.14,497.05,267.97,498.61,272.68,498.61z"/>
			<path fill="#E0C84D" stroke="#B99514" stroke-width="2" stroke-miterlimit="10" d="M324.26,505.43v-3.65
				c0-0.27,0.17-0.55,0.44-0.64l6.88-2.46c0.61-0.18,1.13-0.64,1.57-1.1c0.44-0.55,0.7-1.19,0.7-2.01v-60.79
				c0-0.82-0.26-1.55-0.7-2.1c-0.44-0.55-0.96-0.91-1.57-1l-6.88-2.37c-0.26-0.09-0.44-0.37-0.44-0.64v-2.92
				c0-0.37,0.26-0.64,0.61-0.64h33.63c5.84,0,10.54,0.55,14.2,1.73c3.66,1.19,6.53,2.74,8.63,4.66c2.09,1.92,3.49,4.11,4.27,6.48
				s1.13,4.75,1.13,7.21c0,4.29-0.87,7.94-2.53,10.77c-1.66,2.92-3.83,5.2-6.36,6.94c-2.53,1.73-5.05,3.01-7.49,3.83l0,0
				c0.44-0.18,5.84,0.27-9.76,6.02c-0.09,0-0.17,0-0.26,0l-10.8-3.19c-0.26-0.09-0.52-0.37-0.44-0.73l0.35-4.93
				c0-0.37,0.35-0.73,0.78-0.64l0.87,0.18c0.09,0,0.17,0,0.26,0c0.96,0.09,2,0.18,3.05,0.27c1.13,0.09,2,0.09,2.61,0.09
				c2.88,0,5.23-0.73,7.14-2.28c1.83-1.55,3.22-3.47,4.18-5.93c0.87-2.46,1.39-4.93,1.39-7.58c0-5.39-1.13-9.31-3.49-11.78
				s-5.66-3.74-10.11-3.74h-5.66c-0.35,0-0.61,0.27-0.61,0.64v62.44c0,0.91,0.17,1.55,0.61,2.1s0.87,0.91,1.57,1.1l7.58,2.46
				c0.26,0.09,0.44,0.37,0.44,0.64v2.92c0,0.37-0.26,0.64-0.61,0.64H324.26L324.26,505.43z M401.37,505.43h-17.86
				c-2.18,0-3.92-0.27-5.14-0.73s-2.27-1.28-3.05-2.37c-0.87-1.1-1.74-2.56-2.79-4.38l-15.6-26.29c-0.26-0.37-0.09-0.82,0.35-1
				l13.33-4.75c0.26-0.09,0.61,0,0.78,0.27l17.86,28.57c0.52,0.82,1.31,1.73,2.27,2.65c0.96,0.91,1.83,1.46,2.7,1.73l6.88,2.1
				c0.26,0.09,0.44,0.37,0.44,0.64L401.37,505.43L401.37,505.43z"/>
			<path fill="#E0C84D" stroke="#B99514" stroke-width="2" stroke-miterlimit="10" d="M416.48,505.96v-4.11l7.32-2.65
				c0.7-0.18,1.22-0.55,1.66-1.1c0.44-0.55,0.61-1.19,0.61-2.1v-60.79c0-0.82-0.26-1.55-0.7-2.1c-0.44-0.55-0.96-0.91-1.57-1
				l-7.32-2.56v-4.11h35.38v4.11l-7.49,2.56c-0.7,0.18-1.22,0.55-1.66,1.1s-0.7,1.19-0.7,2.01v62.99h25.27
				c0.61,0,1.13-0.27,1.48-0.91c0.35-0.64,0.61-1.28,0.78-1.92l4.1-15.79h4.88v26.29L416.48,505.96L416.48,505.96z"/>
			<path fill="#E0C84D" stroke="#B99514" stroke-width="2" stroke-miterlimit="10" d="M487.11,505.07v-4.11l7.32-2.65
				c0.7-0.18,1.22-0.64,1.66-1.1c0.44-0.55,0.61-1.19,0.61-2.01v-60.79c0-0.82-0.17-1.55-0.61-2.01c-0.44-0.55-0.96-0.91-1.66-1.1
				l-7.32-2.56v-4.11h35.46c3.05,0,6.36,0.37,9.85,1.1c3.49,0.73,6.97,2.01,10.28,3.83c3.31,1.83,6.45,4.2,9.15,7.3
				c2.7,3.1,4.97,6.94,6.62,11.59c1.66,4.66,2.53,10.13,2.53,16.61c0,9.13-1.74,16.61-5.23,22.55s-8.19,10.31-14.03,13.24
				c-5.84,2.92-12.37,4.38-19.6,4.38h-35.03L487.11,505.07L487.11,505.07z M512.73,432.13v65.36h10.11c7.14,0,12.46-2.74,15.86-8.03
				c3.4-5.39,5.14-12.96,5.14-22.64c0-7.12-0.96-13.33-2.96-18.44c-1.92-5.11-4.71-9.13-8.28-11.96c-3.57-2.83-7.67-4.2-12.46-4.2
				L512.73,432.13L512.73,432.13z"/>
		</g>
	</g>
</g>
</svg>
